<svg xmlns="http://www.w3.org/2000/svg" viewBox="0 0 420 300">
<defs>
<linearGradient id="g" x1="0" x2="1"><stop offset="0" stop-color="#facc15"/><stop offset="1" stop-color="#fb923c"/></linearGradient>
<radialGradient id="r" cx="50%" cy="45%" r="60%"><stop offset="0" stop-color="#facc15" stop-opacity=".35"/><stop offset="1" stop-color="#111113" stop-opacity="0"/></radialGradient>
<filter id="s"><feDropShadow dx="0" dy="20" stdDeviation="18" flood-color="#facc15" flood-opacity=".28"/></filter>
</defs>
<rect width="420" height="300" rx="34" fill="#111113"/>
<circle cx="210" cy="145" r="118" fill="url(#r)"/>
<g filter="url(#s)"><path d="M139 190 C113 160 123 91 151 84 C166 79 175 89 176 108 L180 151 L190 75 C193 56 221 58 221 78 L221 150 L236 82 C241 64 268 69 264 90 L252 156 L279 111 C288 95 311 108 303 125 L270 205 C252 242 169 226 139 190Z" fill="url(#g)" stroke="#fff" stroke-width="8"/></g>
<text x="210" y="268" text-anchor="middle" font-family="Arial" font-size="22" font-weight="900" fill="#facc15">Riding Gloves</text>
</svg>